<?xml version="1.0" encoding="utf-8"?>
<!-- Generator: Adobe Illustrator 22.1.0, SVG Export Plug-In . SVG Version: 6.00 Build 0)  -->
<svg version="1.1" id="图层_1" xmlns="http://www.w3.org/2000/svg" xmlns:xlink="http://www.w3.org/1999/xlink" x="0px" y="0px"
	 viewBox="0 0 350 77.9" style="enable-background:new 0 0 350 77.9;" xml:space="preserve">
<style type="text/css">
	.st0{fill:#D4181C;}
	.st1{fill:#221714;}
</style>
<g>
	<g>
		<g>
			<path class="st0" d="M221.7,50c-1.1,0-2-0.4-2.7-1.2c-0.8-0.8-1.1-1.7-1.1-2.8s0.4-2,1.1-2.8c0.8-0.8,1.7-1.2,2.7-1.2
				c1.1,0,2,0.4,2.8,1.2c0.8,0.8,1.1,1.7,1.1,2.8s-0.4,2-1.1,2.8C223.7,49.7,222.8,50,221.7,50z"/>
			<path class="st0" d="M255.9,47.6c-2.7,1.7-6,2.5-9.8,2.5c-5.1,0-9.2-1.7-12.3-5s-4.7-7.6-4.7-12.9c0-5.9,1.7-10.6,5.1-14.2
				c3.4-3.6,7.9-5.4,13.5-5.4c3.1,0,5.9,0.6,8.3,1.7v6c-2.6-1.9-5.5-2.8-8.5-2.8c-3.6,0-6.6,1.3-9,3.9c-2.3,2.6-3.5,6-3.5,10.3
				c0,4.2,1.1,7.5,3.3,9.9s5.1,3.6,8.8,3.6c3.1,0,6-1,8.8-3.1L255.9,47.6L255.9,47.6z"/>
			<path class="st0" d="M275.9,50.1c-5.3,0-9.5-1.7-12.6-5s-4.7-7.8-4.7-13.3c0-6,1.6-10.7,4.9-14c3.3-3.4,7.7-5.1,13.3-5.1
				c5.3,0,9.5,1.6,12.5,4.9c3,3.3,4.5,7.8,4.5,13.6c0,5.7-1.6,10.3-4.8,13.7C285.6,48.4,281.3,50.1,275.9,50.1z M276.3,17.6
				c-3.7,0-6.6,1.2-8.7,3.7s-3.2,5.9-3.2,10.3c0,4.2,1.1,7.6,3.2,10c2.2,2.4,5.1,3.7,8.7,3.7c3.7,0,6.5-1.2,8.5-3.6s3-5.8,3-10.2
				c0-4.5-1-7.9-3-10.3C282.9,18.8,280,17.6,276.3,17.6z"/>
			<path class="st0" d="M350,49.3h-5.7V28.8c0-4-0.6-6.8-1.8-8.6c-1.2-1.8-3.3-2.6-6.2-2.6c-2.4,0-4.5,1.1-6.2,3.3s-2.6,4.9-2.6,8
				v20.4h-5.7V28.1c0-7-2.7-10.5-8.1-10.5c-2.5,0-4.6,1.1-6.2,3.2c-1.6,2.1-2.4,4.8-2.4,8.2v20.3h-5.7V13.6h5.7v5.6h0.1
				c2.5-4.3,6.2-6.5,11.1-6.5c2.4,0,4.6,0.7,6.4,2s3.1,3.1,3.7,5.4c2.7-4.9,6.6-7.4,11.9-7.4c7.9,0,11.8,4.8,11.8,14.5L350,49.3
				L350,49.3z"/>
		</g>
		<path class="st0" d="M62.8,33.3c-1.3,4-3.5,7-6.3,7c-4.8,0-7.6-8.4-7.6-15.6s2.9-15,7.7-15c3.1,0,5.3,2.9,6.6,7.3h9.1
			C70,7.2,63.8,0.1,56.5,0.1c-9.2,0-16.7,11.2-16.7,25s7.5,25,16.7,25c7.3,0,13.5-7,15.8-16.8H62.8L62.8,33.3z"/>
		<polygon class="st0" points="212,50.1 201.7,50.1 201.7,0 212,0 		"/>
		<polygon class="st0" points="193.1,0 188.1,0 182.1,0 172.1,30.1 162.1,0 155.2,0 151.2,0 144.8,0 144.8,50.1 155.2,50.1 
			155.2,12 166.7,46.6 167.8,50.1 176.4,50.1 188.1,14.9 188.1,50.1 198.5,50.1 198.5,0 		"/>
		<polygon class="st0" points="141.6,10 141.6,0 122.1,0 111.7,0 111.7,10 111.7,20 111.7,30 111.7,40.1 111.7,50.1 122.1,50.1 
			141.6,50.1 141.6,40.1 122.1,40.1 122.1,30 141.6,30 141.6,20 122.1,20 122.1,10 		"/>
		<polygon class="st0" points="98.1,0 98.1,20 85.8,20 85.8,0 75.4,0 75.4,50.1 85.8,50.1 85.8,30 98.1,30 98.1,50.1 108.5,50.1 
			108.5,0 		"/>
		<g>
			<path class="st0" d="M9,0H0v4.7c0,0,3.4-1.6,4.6-2.3C5.8,1.6,8.1,0.2,9,0z"/>
			<path class="st0" d="M16.2,10.9c4,0.8,6.1,3,6.1,3h5.9c0,0-2.6-5.8-10.1-7.6c0,0-4.9-1.4-10.2,1.2c0,0-6.9,3.2-8,3.7v4.7
				c0,0,4.8-2.2,7-3.5C9.1,11.1,12.2,10.1,16.2,10.9z"/>
			<path class="st0" d="M13.9,15.5v-1.6h6.3c0,0-2.5-1.7-6.1-1.9c0,0-3.3-0.3-6.1,1.4c0,0-4.2,2.4-8,4v4.1c0,0,6-2.7,8.9-4.1
				C8.8,17.4,12,15.6,13.9,15.5z"/>
			<path class="st0" d="M10.1,31.7c0,0,10.1-8.6,8.5-13.7h-4.7v-1.3c0,0-1.9,0.3-4.7,1.9c0,0-7.1,3.4-9.2,4.3v3.8
				c0,0,5.7-4.3,10.9-5.5c0,0,3.4-1,2.9,1.7s-7.2,8.4-10.7,8.3v-1.3c0,0,3,0.2,7.7-4.6c0,0,1.8-1.9,1.8-2.9c0,0-0.5-0.6-5.6,1.7
				c0,0-4.4,2.1-7,4.3v7.8C0,36.2,3.6,37.2,10.1,31.7z"/>
			<path class="st0" d="M15.5,36.2h-1.6V32h5.5c7.1-8.6,4.3-13.9,4.3-13.9H20c1,3.1-3.4,10.3-9.9,15.3C3.5,38.5,0,37.5,0,37.5v4.8
				C9.4,43,15.5,36.2,15.5,36.2z"/>
			<path class="st0" d="M13.2,44.1c0,0,4.4-2.5,8.8-8h-4.6c0,0-6.9,8.3-17.4,7.5v3.2C0,46.9,6.4,48.5,13.2,44.1z"/>
			<path class="st0" d="M28.7,36.2h-5.1C11.9,51.4,0,48.2,0,48.2v1.9h13.4C22.3,46.5,28.7,36.2,28.7,36.2z"/>
			<path class="st0" d="M34.8,36.2h-4.5c0,0-4.5,7.1-9.4,10.8c0,0-3.6,2.7-4.6,3.1H27c0,0,4.5-8,5.4-9.5
				C33.3,39,34.8,36.2,34.8,36.2z"/>
			<path class="st0" d="M32.1,43.6c0,0-3.5,6.2-3.6,6.5H33c0,0,1.2-3.4,3.6-6.7v-7.2h-0.3C36.2,36.2,32.5,42.9,32.1,43.6z"/>
			<path class="st0" d="M36.6,50.1v-4.3c0,0-1.7,2.8-2.2,4.3H36.6z"/>
			<path class="st0" d="M23.4,28.4c0,0-2,3.3-2.4,3.6h4c0,0,3.2-4.6,3.9-7.4c0.8-2.7,1-4,0.6-6.6H25c0,0,1,3,0,6.4
				C25,24.4,24.2,27.2,23.4,28.4z"/>
			<path class="st0" d="M33.7,27.1c0,0,1.8-4,1.4-9h-4.2c0,0,0.6,3.4-0.8,7.2c0,0-1.1,3.2-3.5,6.7h4.7C31.3,32,33,29,33.7,27.1z"/>
			<path class="st0" d="M35.8,24.7c0,0-0.4,1.9-0.8,2.7c0,0-1.4,3.3-2.2,4.5h3.8V18.1h-0.2C36.4,18.1,36.7,21.8,35.8,24.7z"/>
			<path class="st0" d="M30.5,0H23c0,0,9.3,3,12.6,13.9h0.9V5.8C36.6,5.8,33.8,2.1,30.5,0z"/>
			<path class="st0" d="M32.7,0c1.3,0.9,3.9,3.8,3.9,3.8V0H32.7z"/>
			<path class="st0" d="M19.7,5.4c6.8,2,9.6,7.5,10,8.5h4.7c0,0-3.5-12.6-17.2-13.9h-1.8c-2,0.1-5.3,0.6-8.5,2.5L0,6.1v3.7
				c0,0,5.6-2.6,6.6-3.1S12.9,3.4,19.7,5.4z"/>
		</g>
	</g>
	<g>
		<path class="st1" d="M0,62.8h4.7c4.3,0,5.1,2.7,5.1,4.4c0,2.2-1.4,4.4-5.1,4.4H1.4v5.9H0V62.8z M1.4,70.3h3.2
			c2.6,0,3.6-1.5,3.6-3.1s-1-3.1-3.6-3.1H1.4V70.3z"/>
		<path class="st1" d="M11.5,66.7h1.4v1.6l0,0c0.6-1.2,1.8-1.8,3.1-1.8v0.8c0,0.3-0.2,0.6-0.6,0.7c-1.2,0.3-2.5,1.2-2.5,3.1v6.4
			h-1.5V66.7H11.5z"/>
		<path class="st1" d="M125.9,66.7h1.4v1.6l0,0c0.6-1.2,1.8-1.8,3.1-1.8v0.8c0,0.3-0.2,0.6-0.6,0.7c-1.2,0.3-2.5,1.2-2.5,3.1v6.4
			h-1.5L125.9,66.7L125.9,66.7z"/>
		<path class="st1" d="M148.3,66.7h1.4v1.6l0,0c0.6-1.2,1.8-1.8,3.1-1.8v0.8c0,0.3-0.2,0.6-0.6,0.7c-1.2,0.3-2.5,1.2-2.5,3.1v6.4
			h-1.5V66.7H148.3z"/>
		<path class="st1" d="M295.4,66.7h1.4v1.6l0,0c0.6-1.2,1.8-1.8,3.1-1.8v0.8c0,0.3-0.2,0.6-0.6,0.7c-1.2,0.3-2.5,1.2-2.5,3.1v6.4
			h-1.5V66.7H295.4z"/>
		<path class="st1" d="M27.8,72.1c0,3.2-2.5,5.7-5.7,5.7s-5.7-2.4-5.7-5.7s2.5-5.7,5.7-5.7S27.8,68.9,27.8,72.1z M17.9,72.1
			c0,2.5,1.8,4.4,4.2,4.4s4.2-1.9,4.2-4.4s-1.8-4.4-4.2-4.4C19.7,67.8,17.9,69.7,17.9,72.1z"/>
		<path class="st1" d="M28.1,66.7h1.6l3.3,7.9c0.2,0.4,0.8,0.4,1,0l3.3-7.9h1.6l-4.7,10.9h-1.5L28.1,66.7z"/>
		<rect x="40.3" y="66.7" class="st1" width="1.5" height="10.9"/>
		<path class="st1" d="M55.4,77.6H54v-2l0,0c-1,1.4-2.5,2.2-4.3,2.2c-3.2,0-5.8-2.4-5.8-5.8c0-2.5,1.9-5.6,5.8-5.6
			c0.9,0,2.9,0.1,4.2,2.1l0,0v-5.7h1.5V77.6z M45.4,72.2c0,2.5,2,4.3,4.3,4.3c2.4,0,4.3-1.9,4.3-4.3c0-2.5-1.8-4.4-4.3-4.4
			C47.3,67.8,45.4,69.6,45.4,72.2z"/>
		<path class="st1" d="M59,72.6c0.2,2.2,1.8,3.8,4.1,3.8c1.7,0,3.1-1,3.8-2.5h1.5c-0.9,2.3-2.9,3.8-5.3,3.8c-3.2,0-5.7-2.4-5.7-5.7
			c0-2.7,2-5.7,5.7-5.7c4.1,0,5.6,3.4,5.6,6.2L59,72.6L59,72.6z M67.1,71.3c-0.4-2.2-2.1-3.6-4-3.6c-2.1,0-3.8,1.5-4.1,3.6H67.1z"/>
		<path class="st1" d="M75.7,62.8h3.7c1.5,0,4.9,0.2,4.9,3.9c0,1.6-1,2.5-1.8,2.9c1.8,0.5,2.6,2.2,2.6,3.7c0,1.2-0.5,4.2-5.3,4.2h-4
			L75.7,62.8L75.7,62.8z M79.4,69.1c1.2,0,3.4-0.2,3.4-2.5c0-2.4-2.3-2.5-3.4-2.5h-2.2v5H79.4z M79.7,76.2c1.4,0,3.8-0.2,3.8-2.8
			c0-2.7-2.4-2.9-3.8-2.9h-2.6v5.7C77.1,76.2,79.7,76.2,79.7,76.2z"/>
		<path class="st1" d="M88,72.6c0.2,2.2,1.8,3.8,4.1,3.8c1.7,0,3.1-1,3.8-2.5h1.5c-0.9,2.3-2.9,3.8-5.3,3.8c-3.2,0-5.7-2.4-5.7-5.7
			c0-2.7,2-5.7,5.7-5.7c4.1,0,5.6,3.4,5.6,6.2L88,72.6L88,72.6z M96.1,71.3c-0.4-2.2-2.1-3.6-4-3.6c-2.1,0-3.8,1.5-4.1,3.6H96.1z"/>
		<path class="st1" d="M114.1,72.6c0.2,2.2,1.8,3.8,4.1,3.8c1.7,0,3.1-1,3.8-2.5h1.5c-0.9,2.3-2.9,3.8-5.3,3.8
			c-3.2,0-5.7-2.4-5.7-5.7c0-2.7,2-5.7,5.7-5.7c4.1,0,5.6,3.4,5.6,6.2L114.1,72.6L114.1,72.6z M122.2,71.3c-0.4-2.2-2.1-3.6-4-3.6
			c-2.1,0-3.8,1.5-4.1,3.6H122.2z"/>
		<path class="st1" d="M136.7,62.8h4.7c4.3,0,5.1,2.7,5.1,4.4c0,2.2-1.4,4.4-5.1,4.4h-3.2v5.9h-1.5V62.8z M138.2,70.3h3.2
			c2.6,0,3.6-1.5,3.6-3.1s-1-3.1-3.6-3.1h-3.2V70.3z"/>
		<path class="st1" d="M164.6,72.1c0,3.2-2.5,5.7-5.7,5.7s-5.7-2.4-5.7-5.7s2.5-5.7,5.7-5.7C162.1,66.4,164.6,68.9,164.6,72.1z
			 M154.7,72.1c0,2.5,1.8,4.4,4.2,4.4s4.2-1.9,4.2-4.4s-1.8-4.4-4.2-4.4C156.5,67.8,154.7,69.7,154.7,72.1z"/>
		<path class="st1" d="M177.8,77.6h-1.4v-2l0,0c-1,1.4-2.5,2.2-4.3,2.2c-3.2,0-5.8-2.4-5.8-5.8c0-2.5,1.9-5.6,5.8-5.6
			c0.9,0,2.9,0.1,4.2,2.1l0,0v-5.7h1.5V77.6z M167.8,72.2c0,2.5,2,4.3,4.3,4.3c2.4,0,4.3-1.9,4.3-4.3c0-2.5-1.8-4.4-4.3-4.4
			C169.7,67.8,167.8,69.6,167.8,72.2z"/>
		<path class="st1" d="M189.9,77.6h-1.4V76l0,0c-0.8,1.2-2.1,1.8-3.6,1.8c-2.5,0-4.8-1.5-4.8-5.4v-5.7h1.5v5.7c0,3,1.8,4.1,3.5,4.1
			c1.5,0,3.3-0.8,3.3-3.8v-6h1.5V77.6z"/>
		<path class="st1" d="M203.1,74.4c-0.7,1.6-2.3,3.4-5.3,3.4c-3.7,0-5.8-2.9-5.8-5.7c0-2.6,2-5.7,5.8-5.7c2.5,0,4.5,1.4,5.3,3.6
			h-1.7c-1.1-2.1-3.2-2.2-3.7-2.2c-2.5,0-4.3,1.9-4.3,4.3c0,2.5,2,4.4,4.3,4.4c1.5,0,2.9-0.7,3.7-2.1L203.1,74.4L203.1,74.4z"/>
		<path class="st1" d="M206.5,68h-2.3v-1.3h2.3v-3.8h1.5v3.8h2.5V68H208v9.5h-1.5V68z"/>
		
			<rect x="40.3" y="63.1" transform="matrix(0.7071 -0.7071 0.7071 0.7071 -33.1296 47.702)" class="st1" width="1.5" height="1.5"/>
		
			<rect x="312.5" y="63.1" transform="matrix(0.7071 -0.7071 0.7071 0.7071 46.6031 240.1663)" class="st1" width="1.5" height="1.5"/>
		<path class="st1" d="M231.5,66.4c-3.1,0-5.7,2.6-5.7,5.7s2.5,5.7,5.7,5.7h5.7v-5.7C237.2,69,234.6,66.4,231.5,66.4z M235.7,76.4
			h-4.5c-2.3,0-4.1-1.8-4.1-4.1v-0.4c0-2.3,1.8-4.1,4.1-4.1h0.4c2.3,0,4.1,1.8,4.1,4.1V76.4z"/>
		<path class="st1" d="M239.7,66.7h1.4v1.6l0,0c0.8-1.2,2.1-1.8,3.6-1.8c2.5,0,4.8,1.5,4.8,5.4v5.7H248v-5.7c0-0.8-0.1-4.1-3.5-4.1
			c-1.5,0-3.3,0.8-3.3,3.8v6h-1.5V66.7z"/>
		<path class="st1" d="M262.9,77.6h-1.4v-2l0,0c-1,1.4-2.5,2.2-4.3,2.2c-3.2,0-5.8-2.4-5.8-5.8c0-2.5,1.9-5.6,5.8-5.6
			c0.9,0,2.9,0.1,4.2,2.1l0,0v-5.7h1.5L262.9,77.6L262.9,77.6z M252.9,72.2c0,2.5,2,4.3,4.3,4.3c2.4,0,4.3-1.9,4.3-4.3
			c0-2.5-1.8-4.4-4.3-4.4C254.8,67.8,252.9,69.6,252.9,72.2z"/>
		<path class="st1" d="M271.1,73.4c0.1,0.6,0.4,3,3.9,3c2.5,0,3.9-1.4,3.9-3c0-1.8-1.7-2.4-2.5-2.7c-2.4-0.7-6.5-0.9-6.5-4.3
			c0-1.6,1.4-4,5.3-4c3.5,0,5.1,2,5.1,4h-1.9c-0.1-0.9-0.7-2.6-3.5-2.6c-2.3,0-3.2,1.4-3.2,2.7c0,1.6,1.4,2.1,3.7,2.6
			c2,0.4,5.3,1.2,5.3,4.3c0,2-1.8,4.3-5.7,4.3c-3.3,0-5.8-1.8-5.8-4.4L271.1,73.4L271.1,73.4z"/>
		<path class="st1" d="M283.6,72.6c0.2,2.2,1.8,3.8,4.1,3.8c1.7,0,3.1-1,3.8-2.5h1.5c-0.9,2.3-2.9,3.8-5.3,3.8
			c-3.2,0-5.7-2.4-5.7-5.7c0-2.7,2-5.7,5.7-5.7c4.1,0,5.6,3.4,5.6,6.2L283.6,72.6L283.6,72.6z M291.7,71.3c-0.4-2.2-2.1-3.6-4-3.6
			c-2.1,0-3.8,1.5-4.1,3.6H291.7z"/>
		<path class="st1" d="M300.2,66.7h1.6l3.3,7.9c0.2,0.4,0.8,0.4,0.9,0l3.3-7.9h1.6l-4.7,10.9h-1.5L300.2,66.7z"/>
		<rect x="312.4" y="66.7" class="st1" width="1.5" height="10.9"/>
		<path class="st1" d="M327,74.4c-0.7,1.6-2.3,3.4-5.3,3.4c-3.7,0-5.8-2.9-5.8-5.7c0-2.6,2-5.7,5.8-5.7c2.5,0,4.5,1.4,5.3,3.6h-1.7
			c-1.1-2.1-3.2-2.2-3.7-2.2c-2.5,0-4.3,1.9-4.3,4.3c0,2.5,2,4.4,4.3,4.4c1.5,0,2.9-0.7,3.7-2.1L327,74.4L327,74.4z"/>
		<path class="st1" d="M330.3,72.6c0.2,2.2,1.8,3.8,4.1,3.8c1.7,0,3.1-1,3.8-2.5h1.5c-0.9,2.3-2.9,3.8-5.3,3.8
			c-3.2,0-5.7-2.4-5.7-5.7c0-2.7,2-5.7,5.7-5.7c4.1,0,5.6,3.4,5.6,6.2L330.3,72.6L330.3,72.6z M338.5,71.3c-0.4-2.2-2.1-3.6-4-3.6
			c-2.1,0-3.8,1.5-4.1,3.6H338.5z"/>
		<path class="st1" d="M343.2,74.4c-0.1,1.1,0.8,2.1,2.5,2.1c1.6,0,2.4-0.9,2.4-1.9c0-1.3-1.4-1.7-2.7-2.1c-1.4-0.4-3.6-1-3.6-3
			c0-1.7,1.5-3.1,4-3.1c2.3,0,3.8,1.3,3.8,3h-1.9c0-1-0.8-1.6-2-1.6c-1.3,0-2.1,0.7-2.1,1.6c0,1.3,1.4,1.6,2.7,2
			c1.6,0.4,3.6,1,3.6,3s-1.6,3.5-4.4,3.5c-2.9,0-4.2-1.6-4.2-3.5H343.2z"/>
		<path class="st1" d="M213.1,74.4c-0.1,1.1,0.8,2.1,2.5,2.1c1.6,0,2.4-0.9,2.4-1.9c0-1.3-1.4-1.7-2.7-2.1c-1.4-0.4-3.6-1-3.6-3
			c0-1.7,1.5-3.1,4-3.1c2.3,0,3.8,1.3,3.8,3h-1.9c0-1-0.8-1.6-2-1.6c-1.3,0-2.1,0.7-2.1,1.6c0,1.3,1.4,1.6,2.7,2
			c1.6,0.4,3.6,1,3.6,3s-1.6,3.5-4.4,3.5c-2.9,0-4.2-1.6-4.2-3.5H213.1z"/>
		<path class="st1" d="M100.7,62.8h1.5v3.8h2.5v1.3h-2.5v8.2h1.6v1.3h-2.5c-0.3,0-0.6-0.3-0.6-0.6v-9h-1.9l0.2-1.3h1.7
			C100.7,66.5,100.7,62.8,100.7,62.8z"/>
		<path class="st1" d="M107.5,62.8h1.5v3.8h2.5v1.3H109v8.2h1.6v1.3H108c-0.3,0-0.6-0.3-0.6-0.6v-9h-1.9l0.2-1.3h1.7v-3.7H107.5z"/>
	</g>
</g>
</svg>
